<?xml version="1.0" encoding="iso-8859-1"?>
<!-- Uploaded to: SVG Repo, www.svgrepo.com, Generator: SVG Repo Mixer Tools -->
<!DOCTYPE svg PUBLIC "-//W3C//DTD SVG 1.1//EN" "http://www.w3.org/Graphics/SVG/1.1/DTD/svg11.dtd">
<svg fill="#000000" version="1.1" id="Capa_1" xmlns="http://www.w3.org/2000/svg" xmlns:xlink="http://www.w3.org/1999/xlink" 
	 width="800px" height="800px" viewBox="0 0 43.369 43.369"
	 xml:space="preserve">
<g>
	<g>
		<path d="M42.118,25.382c-3.738-0.568-6.568-3.34-8.092-5.203c0.136-0.361,0.215-0.752,0.215-1.161v-0.516h1.539
			c0.724,0,1.311-0.587,1.311-1.311v-1.224c0-0.724-0.587-1.311-1.311-1.311h-1.539v-0.525c0-1.826-1.494-3.321-3.321-3.321h-4.883
			c-0.942,0-1.792,0.399-2.395,1.036c-0.523,0.553-1.367,0.552-1.855-0.032c-1.479-1.771-3.706-2.893-6.197-2.893h-0.104
			c-1.229,0-2.226,0.997-2.226,2.226v11.818c0,1.233,1,2.232,2.233,2.232h0.097c2.724,0,5.131-1.35,6.591-3.417
			c0.414-0.586,1.215-0.649,1.772-0.196c0.412,0.335,0.907,0.573,1.448,0.678l2.729,13.649c0.204,1.018,1.099,1.751,2.137,1.751
			h2.268c1.374,0,2.403-1.256,2.134-2.603L32.17,22.569c1.905,2.196,5.151,5.062,9.504,5.726c0.075,0.013,0.149,0.017,0.224,0.017
			c0.715,0,1.343-0.522,1.454-1.251C43.476,26.256,42.923,25.505,42.118,25.382z"/>
		<path d="M8.621,18.165h0.982c0.813,0,1.473-0.663,1.473-1.477s-0.659-1.477-1.473-1.477H8.621c-0.814,0-1.473,0.663-1.473,1.477
			S7.806,18.165,8.621,18.165z"/>
		<path d="M2.729,15.211H1.747c-0.813,0-1.473,0.663-1.473,1.477s0.659,1.477,1.473,1.477h0.982c0.813,0,1.473-0.663,1.473-1.477
			S3.542,15.211,2.729,15.211z"/>
		<path d="M7.993,13.304l0.817,0.545c0.251,0.168,0.536,0.249,0.817,0.249c0.476,0,0.942-0.229,1.226-0.654
			c0.452-0.677,0.27-1.591-0.406-2.043l-0.816-0.546c-0.677-0.453-1.591-0.271-2.043,0.406C7.135,11.938,7.317,12.853,7.993,13.304z
			"/>
		<path d="M0.654,8.403L1.47,8.949c0.251,0.168,0.536,0.248,0.817,0.248c0.476,0,0.942-0.229,1.226-0.654
			C3.965,7.867,3.783,6.952,3.107,6.5L2.292,5.955C1.613,5.502,0.699,5.686,0.249,6.36C-0.204,7.037-0.021,7.951,0.654,8.403z"/>
		<path d="M7.993,20.071l0.817-0.546c0.251-0.168,0.536-0.248,0.817-0.248c0.476,0,0.942,0.229,1.226,0.654
			c0.452,0.677,0.27,1.591-0.406,2.043l-0.816,0.546c-0.677,0.453-1.591,0.27-2.043-0.406C7.135,21.438,7.317,20.523,7.993,20.071z"
			/>
		<path d="M0.654,24.973l0.816-0.546c0.251-0.168,0.536-0.249,0.817-0.249c0.476,0,0.942,0.23,1.226,0.655
			c0.452,0.676,0.27,1.591-0.406,2.043l-0.816,0.545c-0.678,0.452-1.591,0.271-2.043-0.405C-0.204,26.338-0.021,25.423,0.654,24.973
			z"/>
	</g>
</g>
</svg>